#!OML:ASF G:\JayActor3\Patient Classification 1\Patient 1\Session 2\male.ASF
:FULLY-SPECIFIED
:DEGREES
2611
root 50.6548 15.6649 -6.11298 831.395 -88.8329 -104.42
lowerback 17.3499 1.59039 -2.9771
upperback 14.92 0.47363 -0.69039
thorax 6.39432 -0.496166 0.816149
lowerneck 0.217877 3.68537 0.207043
upperneck -14.4966 4.54741 -1.99661
head -4.79449 2.22535 -0.896205
rclavicle 3.45885e-014 6.08281e-014
rhumerus -22.5257 6.39193 -76.7796
rradius 59.1611
rwrist 6.03618
rhand -39.0501 8.0257
rfingers 7.12502
rthumb -12.0519 -21.6073
lclavicle 3.45885e-014 6.08281e-014
lhumerus 11.6811 -6.29118 78.2202
lradius 86.8944
lwrist -0.493306
lhand -21.3074 13.3842
lfingers 7.12502
lthumb 5.07759 43.3033
rfemur -36.4258 -2.27696 18.4733
rtibia 63.911
rfoot -26.0553 -8.05524
rtoes 3.01248
lfemur -34.9746 10.3406 -25.2145
ltibia 52.9117
lfoot -22.3184 13.6325
ltoes -6.90987
2612
root 50.6498 15.6579 -6.07885 842.365 -88.7084 -115.344
lowerback 17.4097 1.62587 -3.0091
upperback 14.9241 0.507786 -0.723591
thorax 6.3669 -0.482247 0.794221
lowerneck 0.240889 3.74517 0.251287
upperneck -14.5407 4.6204 -2.0766
head -4.81134 2.26281 -0.935508
rclavicle 2.98177e-014 2.8625e-014
rhumerus -22.5584 6.21807 -76.7426
rradius 59.2157
rwrist 6.0321
rhand -38.9983 8.14285
rfingers 7.12502
rthumb -12.002 -21.493
lclavicle 2.98177e-014 2.8625e-014
lhumerus 11.8502 -6.21145 78.1394
lradius 86.9104
lwrist -0.492171
lhand -21.24 13.3919
lfingers 7.12502
lthumb 5.14264 43.3095
rfemur -37.0393 -2.27911 18.3635
rtibia 64.7017
rfoot -25.4358 -7.94335
rtoes 3.32895
lfemur -35.0463 10.4206 -25.3254
ltibia 53.0039
lfoot -22.424 13.7643
ltoes -6.81322
2613
root 50.6447 15.6505 -6.04529 851.573 -88.5381 -124.509
lowerback 17.4668 1.66916 -3.05532
upperback 14.9313 0.549858 -0.752906
thorax 6.3441 -0.466135 0.783353
lowerneck 0.264447 3.80627 0.288648
upperneck -14.5949 4.69433 -2.15736
head -4.83219 2.301 -0.97421
rclavicle 1.19271e-015 -1.51076e-014
rhumerus -22.5848 6.05996 -76.7019
rradius 59.2784
rwrist 6.03519
rhand -38.954 8.24035
rfingers 7.12502
rthumb -11.9593 -21.398
lclavicle 1.19271e-015 -1.51076e-014
lhumerus 12.0131 -6.1383 78.0503
lradius 86.9375
lwrist -0.482057
lhand -21.1777 13.3982
lfingers 7.12502
lthumb 5.20279 43.3144
rfemur -37.6884 -2.26022 18.2619
rtibia 65.5337
rfoot -24.7756 -7.8911
rtoes 3.79305
lfemur -35.1185 10.5373 -25.4372
ltibia 53.1005
lfoot -22.5318 13.878
ltoes -6.72965
2614
root 50.6394 15.6433 -6.01232 859.045 -88.3298 -131.945
lowerback 17.5245 1.72144 -3.11488
upperback 14.9442 0.600965 -0.779558
thorax 6.32713 -0.447338 0.781536
lowerneck 0.279263 3.86625 0.324492
upperneck -14.6575 4.76629 -2.23666
head -4.85442 2.33797 -1.01208
rclavicle 2.0276e-014 3.97569e-015
rhumerus -22.6015 5.91655 -76.6593
rradius 59.3481
rwrist 6.04764
rhand -38.9168 8.29343
rfingers 7.12502
rthumb -11.9234 -21.347
lclavicle 2.0276e-014 3.97569e-015
lhumerus 12.1771 -6.07478 77.9513
lradius 86.9702
lwrist -0.47533
lhand -21.1422 13.413
lfingers 7.12502
lthumb 5.23706 43.3283
rfemur -38.3726 -2.21859 18.169
rtibia 66.4033
rfoot -24.0698 -7.92419
rtoes 4.3544
lfemur -35.1816 10.6937 -25.5495
ltibia 53.1959
lfoot -22.645 13.9689
ltoes -6.65206
2615
root 50.6338 15.6366 -5.97993 865.026 -88.0897 -137.895
lowerback 17.5821 1.78271 -3.18511
upperback 14.9614 0.661634 -0.804635
thorax 6.31479 -0.425193 0.786054
lowerneck 0.294052 3.92707 0.353817
upperneck -14.7308 4.83954 -2.30882
head -4.88099 2.37541 -1.04676
rclavicle 3.18055e-015 9.54166e-015
rhumerus -22.6075 5.78333 -76.6183
rradius 59.4177
rwrist 6.07368
rhand -38.8926 8.31006
rfingers 7.12502
rthumb -11.9 -21.3318
lclavicle 3.18055e-015 9.54166e-015
lhumerus 12.3381 -6.02417 77.84
lradius 87.009
lwrist -0.468824
lhand -21.1342 13.4326
lfingers 7.12502
lthumb 5.2448 43.3477
rfemur -39.0923 -2.15445 18.0866
rtibia 67.3065
rfoot -23.3184 -8.05918
rtoes 4.99962
lfemur -35.2342 10.8881 -25.6621
ltibia 53.287
lfoot -22.7584 14.0449
ltoes -6.60655
2616
root 50.6279 15.6303 -5.94808 869.79 -87.826 -142.635
lowerback 17.6343 1.84913 -3.27247
upperback 14.9881 0.725757 -0.824375
thorax 6.31586 -0.403947 0.805184
lowerneck 0.29211 3.98959 0.371551
upperneck -14.81 4.91379 -2.38173
head -4.90662 2.41372 -1.07944
rclavicle -8.34896e-015 -8.74653e-015
rhumerus -22.5892 5.67463 -76.5734
rradius 59.4861
rwrist 6.09216
rhand -38.8634 8.30998
rfingers 7.12502
rthumb -11.872 -21.3335
lclavicle -8.34896e-015 -8.74653e-015
lhumerus 12.4996 -5.96746 77.72
lradius 87.0541
lwrist -0.463905
lhand -21.15 13.4503
lfingers 7.12502
lthumb 5.22954 43.3657
rfemur -39.8448 -2.07513 18.0156
rtibia 68.2372
rfoot -22.5228 -8.3017
rtoes 5.73141
lfemur -35.2748 11.1162 -25.7751
ltibia 53.3726
lfoot -22.8737 14.1015
ltoes -6.57227
